# xmcd
#
# Track frame offsets: 
#        150
#        15496
#        31336
#        42431
#        60034
#        74023
#        86565
#        103043
#        118714
#        135340
#        151675
#        168057
#        183321
#        196836
#        210837
#        223588
#        238739
#
# Disc length: 3333 seconds
#
# Revision: 3
# Processed by: cddbd v1.5.2PL0 Copyright (c) Steve Scherf et al.
# Submitted via: ExactAudioCopyFreeDBPlugin 1.0
#
DISCID=d40d0311
DTITLE=Olivia Newton-John - 1988 - Love Songs
DYEAR=1988
DGENRE=Country
TTITLE0=Please Mr Please
TTITLE1=Have You Never Been Mellow
TTITLE2=If
TTITLE3=Angel Of The Morning
TTITLE4=Behind That Locked Door
TTITLE5=God Only Knows
TTITLE6=Love Song
TTITLE7=No Regrets
TTITLE8=If You Could Read My Mind
TTITLE9=I Honestly Love You
TTITLE10=Amoureuse
TTITLE11=Where Are We Going To My Love
TTITLE12=Lullaby
TTITLE13=I Will Touch You
TTITLE14=Winterwood
TTITLE15=If We Only Have Love
TTITLE16=Changes
EXTD=
EXTT0=
EXTT1=
EXTT2=
EXTT3=
EXTT4=
EXTT5=
EXTT6=
EXTT7=
EXTT8=
EXTT9=
EXTT10=
EXTT11=
EXTT12=
EXTT13=
EXTT14=
EXTT15=
EXTT16=
PLAYORDER=
